<svg xmlns="http://www.w3.org/2000/svg" xmlns:xlink="http://www.w3.org/1999/xlink" width="1080" zoomAndPan="magnify" viewBox="0 0 810 809.999993" height="1080" preserveAspectRatio="xMidYMid meet" version="1.0"><defs><clipPath id="de3164d5cb"><path d="M 13 165 L 803 165 L 803 626 L 13 626 Z M 13 165 " clip-rule="nonzero"/></clipPath><clipPath id="82658d9686"><path d="M 434.46875 165.46875 C 352.183594 165.46875 282.675781 224.613281 261.050781 305.375 C 252.046875 299.636719 241.691406 296.335938 230.617188 296.335938 C 196.371094 296.335938 168.582031 327.65625 168.582031 366.253906 C 168.582031 366.644531 168.578125 367.019531 168.582031 367.410156 C 158.324219 365.042969 147.570312 363.703125 136.4375 363.703125 C 68.558594 363.703125 13.472656 410.71875 13.472656 468.617188 C 13.472656 526.511719 68.5625 573.53125 136.4375 573.53125 C 163.324219 573.53125 188.164062 566.097656 208.410156 553.597656 C 220.5 594.371094 254.617188 623.824219 294.84375 623.824219 C 322.097656 623.824219 346.539062 610.296875 363.25 588.902344 C 379.457031 598.460938 398.523438 603.96875 418.90625 603.96875 C 446.640625 603.96875 471.949219 593.800781 490.945312 577.085938 C 516.542969 607.023438 554.179688 625.984375 596.160156 625.984375 C 647.664062 625.984375 692.675781 597.425781 716.863281 555.066406 C 720.503906 555.667969 724.242188 555.992188 728.035156 555.992188 C 769.007812 555.992188 802.199219 519.675781 802.199219 474.875 C 802.199219 430.074219 769.007812 393.679688 728.035156 393.679688 C 720.703125 393.679688 713.613281 394.910156 706.921875 397.082031 C 684.847656 367.75 651.835938 347.414062 614.113281 342.460938 C 606.398438 243.375 528.902344 165.46875 434.457031 165.46875 Z M 434.46875 165.46875 " clip-rule="nonzero"/></clipPath><linearGradient x1="0.000000000422921" gradientTransform="matrix(788.725393, 0, 0, 460.516746, 13.473729, 165.469319)" y1="0" x2="1" gradientUnits="userSpaceOnUse" y2="0" id="da786ffcb1"><stop stop-opacity="1" stop-color="rgb(0%, 0%, 0%)" offset="0"/><stop stop-opacity="1" stop-color="rgb(0%, 0%, 0%)" offset="0.5"/><stop stop-opacity="1" stop-color="rgb(0%, 0%, 0%)" offset="0.75"/><stop stop-opacity="1" stop-color="rgb(0%, 0%, 0%)" offset="0.875"/><stop stop-opacity="1" stop-color="rgb(0%, 0%, 0%)" offset="0.9375"/><stop stop-opacity="1" stop-color="rgb(0%, 0%, 0%)" offset="0.96875"/><stop stop-opacity="1" stop-color="rgb(0%, 0%, 0%)" offset="0.984375"/><stop stop-opacity="1" stop-color="rgb(0%, 0%, 0%)" offset="0.992188"/><stop stop-opacity="1" stop-color="rgb(26.098633%, 13.549805%, 1.199341%)" offset="0.996094"/><stop stop-opacity="1" stop-color="rgb(52.198792%, 27.099609%, 2.398682%)" offset="1"/></linearGradient><clipPath id="87e42e5eb1"><path d="M 9 161 L 807 161 L 807 632 L 9 632 Z M 9 161 " clip-rule="nonzero"/></clipPath><clipPath id="6a162e4ed9"><path d="M 430.535156 161.066406 C 355.324219 161.320312 281.792969 217.945312 258.421875 298.8125 C 224.40625 279.371094 178.710938 301.863281 167.671875 342.773438 C 165.863281 348.976562 164.675781 355.480469 164.382812 362.007812 C 111.007812 351.414062 47.890625 371.101562 19.277344 425.976562 C 0.136719 461.777344 9.441406 510.339844 36.6875 537.382812 C 80.875 584.746094 153.222656 589.75 206.191406 561.640625 C 223.378906 613.375 279.144531 642.640625 325.527344 623.597656 C 340.296875 618.210938 353.757812 607.539062 364.457031 595.632812 C 404.242188 617.261719 454.605469 613.417969 490.507812 584.121094 C 548.105469 649.3125 653.15625 646.660156 707.316406 577.554688 C 713.785156 572.574219 715.628906 558.015625 725.066406 561.332031 C 768.816406 564.75 810.007812 520.617188 806.496094 470.789062 C 805.066406 419.464844 757.996094 380.144531 713.828125 390.671875 C 704.714844 394.929688 701.226562 379.75 693.742188 375.917969 C 672.5625 354.945312 644.445312 343.515625 618.070312 337.753906 C 610.03125 248.261719 541.351562 175.042969 463.257812 163.417969 C 452.464844 161.574219 441.484375 160.785156 430.539062 161.070312 Z M 430.535156 161.066406 " clip-rule="nonzero"/></clipPath><linearGradient x1="-0.0113313" gradientTransform="matrix(797.532093, 0, 0, 470.246546, 9.174954, 161.012529)" y1="0" x2="1.004129" gradientUnits="userSpaceOnUse" y2="0" id="f05d0ed4fe"><stop stop-opacity="1" stop-color="rgb(0%, 0%, 0%)" offset="0"/><stop stop-opacity="1" stop-color="rgb(0%, 0%, 0%)" offset="0.5"/><stop stop-opacity="1" stop-color="rgb(0%, 0%, 0%)" offset="0.75"/><stop stop-opacity="1" stop-color="rgb(0%, 0%, 0%)" offset="0.875"/><stop stop-opacity="1" stop-color="rgb(0%, 0%, 0%)" offset="0.9375"/><stop stop-opacity="1" stop-color="rgb(0%, 0%, 0%)" offset="0.96875"/><stop stop-opacity="1" stop-color="rgb(0%, 0%, 0%)" offset="0.984375"/><stop stop-opacity="1" stop-color="rgb(0%, 0%, 0%)" offset="0.992187"/><stop stop-opacity="1" stop-color="rgb(26.098633%, 13.549805%, 1.199341%)" offset="0.996094"/><stop stop-opacity="1" stop-color="rgb(52.198792%, 27.099609%, 2.398682%)" offset="1"/></linearGradient><clipPath id="7fe3df7d31"><path d="M 7 160.660156 L 809 160.660156 L 809 633 L 7 633 Z M 7 160.660156 " clip-rule="nonzero"/></clipPath></defs><rect x="-81" width="972" fill="#ffffff" y="-80.999999" height="971.999992" fill-opacity="1"/><rect x="-81" width="972" fill="#ffffff" y="-80.999999" height="971.999992" fill-opacity="1"/><g clip-path="url(#de3164d5cb)"><g clip-path="url(#82658d9686)"><path fill="url(#da786ffcb1)" d="M 13.472656 165.46875 L 13.472656 625.984375 L 802.199219 625.984375 L 802.199219 165.46875 Z M 13.472656 165.46875 " fill-rule="nonzero"/></g></g><path stroke-linecap="butt" transform="matrix(0.0938151, 0, 0, 0.0938151, 0.403409, 133.910814)" fill="none" stroke-linejoin="miter" d="M 4626.815429 336.384251 C 3749.716536 336.384251 3008.814675 966.821201 2778.308172 1827.681378 C 2682.333193 1766.515545 2571.951556 1731.331658 2453.908577 1731.331658 C 2088.870552 1731.331658 1792.659703 2065.18302 1792.659703 2476.605482 C 1792.659703 2480.769255 1792.618065 2484.766478 1792.659703 2488.930252 C 1683.31901 2463.697784 1568.690325 2449.416041 1450.02278 2449.416041 C 726.483854 2449.416041 139.308511 2950.567822 139.308511 3567.722335 C 139.308511 4184.835209 726.525492 4686.028628 1450.02278 4686.028628 C 1736.615311 4686.028628 2001.38967 4606.792018 2217.198052 4473.551265 C 2346.066843 4908.165946 2709.730822 5222.11447 3138.51622 5222.11447 C 3429.022699 5222.11447 3689.550009 5077.922993 3867.67624 4849.873117 C 4040.431204 4951.760655 4243.66499 5010.469862 4460.930692 5010.469862 C 4756.558613 5010.469862 5026.329499 4902.086837 5228.813806 4723.918967 C 5501.665885 5043.030571 5902.845464 5245.140138 6350.326205 5245.140138 C 6899.319745 5245.140138 7379.111368 4940.726655 7636.932225 4489.207054 C 7675.738594 4495.619265 7715.585907 4499.075197 7756.016148 4499.075197 C 8192.754353 4499.075197 8546.55019 4111.969172 8546.55019 3634.425986 C 8546.55019 3156.882801 8192.754353 2768.944021 7756.016148 2768.944021 C 7677.862119 2768.944021 7602.289629 2782.059908 7530.964189 2805.210489 C 7295.669347 2492.552734 6943.788846 2275.786685 6541.693237 2222.990036 C 6459.45871 1166.807244 5633.40768 336.384251 4626.690516 336.384251 Z M 4626.815429 336.384251 " stroke="#000000" stroke-width="2.587" stroke-opacity="1" stroke-miterlimit="4"/><g clip-path="url(#87e42e5eb1)"><g clip-path="url(#6a162e4ed9)"><path fill="url(#f05d0ed4fe)" d="M 0.136719 160.785156 L 0.136719 649.3125 L 810 649.3125 L 810 160.785156 Z M 0.136719 160.785156 " fill-rule="nonzero"/></g></g><g clip-path="url(#7fe3df7d31)"><path stroke-linecap="butt" transform="matrix(0.0938151, 0, 0, 0.0938151, 0.403409, 133.910814)" fill="none" stroke-linejoin="miter" d="M 4584.88623 289.458524 C 3783.193275 292.164977 2999.404547 895.745587 2750.285976 1757.729982 C 2387.704578 1550.498974 1900.626351 1790.249054 1782.958111 2226.321055 C 1763.679839 2292.441779 1751.021968 2361.768608 1747.899138 2431.345264 C 1178.961123 2318.423726 506.178597 2528.277911 201.182186 3113.204816 C -2.842717 3494.81466 96.338368 4012.454985 386.761572 4300.713026 C 857.767633 4805.570566 1628.940128 4858.908505 2193.547818 4559.283362 C 2376.753853 5110.733528 2971.174162 5422.683441 3465.580631 5219.699481 C 3623.012908 5162.281044 3766.496543 5048.526752 3880.5423 4921.614934 C 4304.622634 5152.163075 4841.457955 5111.191543 5224.15038 4798.908529 C 5838.098786 5493.800693 6957.862401 5465.52867 7535.1696 4728.915496 C 7604.12169 4675.827383 7623.774701 4520.643544 7724.371469 4555.993981 C 8190.714104 4592.426999 8629.784023 4122.003866 8592.351699 3590.872915 C 8577.112287 3043.794712 8075.377577 2624.669268 7604.579705 2736.882965 C 7507.438868 2782.268096 7470.256371 2620.463857 7390.47847 2579.617239 C 7164.718669 2356.064238 6865.010251 2234.232225 6583.872263 2172.816565 C 6498.181803 1218.89605 5766.107142 438.438341 4933.685538 314.52444 C 4818.640476 294.871429 4701.596802 286.460607 4584.927868 289.500162 Z M 4584.88623 289.458524 " stroke="#a3ced5" stroke-width="2.587" stroke-opacity="1" stroke-miterlimit="4"/></g></svg>